<svg width="64" height="64" viewBox="0 0 64 64" fill="none" xmlns="http://www.w3.org/2000/svg">
<path d="M3 32V16C3.00158 15.4701 3.2128 14.9623 3.58753 14.5875C3.96227 14.2128 4.47005 14.0016 5 14H44.51C45.2994 13.999 46.0812 14.154 46.8106 14.456C47.5399 14.758 48.2024 15.2012 48.76 15.76L51 18H8C7.73478 18 7.48043 18.1054 7.29289 18.2929C7.10536 18.4804 7 18.7348 7 19V27C7 27.2652 7.10536 27.5196 7.29289 27.7071C7.48043 27.8946 7.73478 28 8 28H39V44H21C21 42.4087 20.3679 40.8826 19.2426 39.7574C18.1174 38.6321 16.5913 38 15 38C13.4087 38 11.8826 38.6321 10.7574 39.7574C9.63214 40.8826 9 42.4087 9 44H7C5.93913 44 4.92172 43.5786 4.17157 42.8284C3.42143 42.0783 3 41.0609 3 40V32Z" fill="#FF9811" id="id_101"></path>
<path d="M39 44V28H60.45C60.8133 28.7798 61.001 29.6298 61 30.49V32H57C56.4701 32.0016 55.9623 32.2128 55.5875 32.5875C55.2128 32.9623 55.0016 33.4701 55 34C55.0039 34.5292 55.2159 35.0356 55.5901 35.4099C55.9644 35.7841 56.4708 35.9961 57 36H61V42C60.9984 42.5299 60.7872 43.0377 60.4125 43.4125C60.0377 43.7872 59.5299 43.9984 59 44H55C55 42.4087 54.3679 40.8826 53.2426 39.7574C52.1174 38.6321 50.5913 38 49 38C47.4087 38 45.8826 38.6321 44.7574 39.7574C43.6321 40.8826 43 42.4087 43 44H39Z" fill="#FFA733" id="id_102"></path>
<path d="M15 50C18.3137 50 21 47.3137 21 44C21 40.6863 18.3137 38 15 38C11.6863 38 9 40.6863 9 44C9 47.3137 11.6863 50 15 50Z" fill="#57565C" id="id_103"></path>
<path d="M49 50C52.3137 50 55 47.3137 55 44C55 40.6863 52.3137 38 49 38C45.6863 38 43 40.6863 43 44C43 47.3137 45.6863 50 49 50Z" fill="#57565C" id="id_104"></path>
<path d="M39 18V28H8C7.73478 28 7.48043 27.8946 7.29289 27.7071C7.10536 27.5196 7 27.2652 7 27V19C7 18.7348 7.10536 18.4804 7.29289 18.2929C7.48043 18.1054 7.73478 18 8 18H39Z" fill="#D1D3D4" id="id_105"></path>
<path d="M61 32V36H57C56.4708 35.9961 55.9644 35.7841 55.5901 35.4099C55.2159 35.0356 55.0039 34.5292 55 34C55.0016 33.4701 55.2128 32.9623 55.5875 32.5875C55.9623 32.2128 56.4701 32.0016 57 32H61Z" fill="#E6E7E8" id="id_106"></path>
<path d="M60.45 28H39V18H51L59.24 26.24C59.7505 26.7453 60.161 27.3424 60.45 28V28Z" fill="#E6E7E8" id="id_107"></path>
<path d="M59.949 25.536L49.465 15.05C48.8163 14.3981 48.0449 13.8813 47.1952 13.5295C46.3456 13.1776 45.4346 12.9976 44.515 13H5C4.20435 13 3.44129 13.3161 2.87868 13.8787C2.31607 14.4413 2 15.2043 2 16V40C2.00159 41.3256 2.52888 42.5964 3.46622 43.5338C4.40356 44.4711 5.6744 44.9984 7 45H8.08C8.3191 46.6649 9.15041 48.1877 10.4214 49.2893C11.6925 50.3908 13.3181 50.9972 15 50.9972C16.6819 50.9972 18.3075 50.3908 19.5786 49.2893C20.8496 48.1877 21.6809 46.6649 21.92 45H42.08C42.3191 46.6649 43.1504 48.1877 44.4214 49.2893C45.6925 50.3908 47.3181 50.9972 49 50.9972C50.6819 50.9972 52.3075 50.3908 53.5786 49.2893C54.8496 48.1877 55.6809 46.6649 55.92 45H59C59.7956 45 60.5587 44.6839 61.1213 44.1213C61.6839 43.5587 62 42.7956 62 42V30.485C62.0025 29.5654 61.8225 28.6545 61.4704 27.805C61.1184 26.9554 60.6012 26.1842 59.949 25.536V25.536ZM58.576 27H40V19H50.586L58.535 26.95C58.551 26.966 58.561 26.984 58.576 27ZM38 27H8V19H38V27ZM4 40V33H7V31H4V16C4 15.7348 4.10536 15.4804 4.29289 15.2929C4.48043 15.1053 4.73478 15 5 15H44.515C45.1719 14.9984 45.8226 15.1269 46.4295 15.3782C47.0364 15.6295 47.5875 15.9985 48.051 16.464L48.586 17H8C7.46957 17 6.96086 17.2107 6.58579 17.5858C6.21071 17.9609 6 18.4696 6 19V27C6 27.5304 6.21071 28.0391 6.58579 28.4142C6.96086 28.7893 7.46957 29 8 29H38V43H21.92C21.6809 41.3351 20.8496 39.8123 19.5786 38.7107C18.3075 37.6092 16.6819 37.0028 15 37.0028C13.3181 37.0028 11.6925 37.6092 10.4214 38.7107C9.15041 39.8123 8.3191 41.3351 8.08 43H7C6.20435 43 5.44129 42.6839 4.87868 42.1213C4.31607 41.5587 4 40.7956 4 40V40ZM15 49C14.0111 49 13.0444 48.7067 12.2221 48.1573C11.3999 47.6079 10.759 46.827 10.3806 45.9134C10.0022 44.9998 9.90315 43.9944 10.0961 43.0245C10.289 42.0546 10.7652 41.1637 11.4645 40.4645C12.1637 39.7652 13.0546 39.289 14.0245 39.0961C14.9945 38.9031 15.9998 39.0022 16.9134 39.3806C17.827 39.759 18.6079 40.3999 19.1573 41.2221C19.7068 42.0444 20 43.0111 20 44C19.9984 45.3256 19.4711 46.5964 18.5338 47.5338C17.5964 48.4711 16.3256 48.9984 15 49V49ZM49 49C48.0111 49 47.0444 48.7067 46.2221 48.1573C45.3999 47.6079 44.759 46.827 44.3806 45.9134C44.0022 44.9998 43.9031 43.9944 44.0961 43.0245C44.289 42.0546 44.7652 41.1637 45.4645 40.4645C46.1637 39.7652 47.0546 39.289 48.0245 39.0961C48.9945 38.9031 49.9998 39.0022 50.9134 39.3806C51.827 39.759 52.6079 40.3999 53.1573 41.2221C53.7068 42.0444 54 43.0111 54 44C53.9984 45.3256 53.4711 46.5964 52.5338 47.5338C51.5964 48.4711 50.3256 48.9984 49 49ZM59 43H55.92C55.6809 41.3351 54.8496 39.8123 53.5786 38.7107C52.3075 37.6092 50.6819 37.0028 49 37.0028C47.3181 37.0028 45.6925 37.6092 44.4214 38.7107C43.1504 39.8123 42.3191 41.3351 42.08 43H40V29H59.752C59.9091 29.4796 59.9928 29.9803 60 30.485V31H57C56.2044 31 55.4413 31.3161 54.8787 31.8787C54.3161 32.4413 54 33.2043 54 34C54 34.7956 54.3161 35.5587 54.8787 36.1213C55.4413 36.6839 56.2044 37 57 37H60V39H57V41H60V42C60 42.2652 59.8946 42.5196 59.7071 42.7071C59.5196 42.8946 59.2652 43 59 43ZM60 33V35H57C56.7348 35 56.4804 34.8946 56.2929 34.7071C56.1054 34.5196 56 34.2652 56 34C56 33.7348 56.1054 33.4804 56.2929 33.2929C56.4804 33.1053 56.7348 33 57 33H60Z" fill="black" id="id_108"></path>
<path d="M46 31H42V33H46V31Z" fill="black" id="id_109"></path>
<path d="M16 43H14V45H16V43Z" fill="black" id="id_110"></path>
<path d="M50 43H48V45H50V43Z" fill="black" id="id_111"></path>
</svg>