<svg width="43" height="42" viewBox="0 0 43 42" fill="none" xmlns="http://www.w3.org/2000/svg">
<rect x="0.207031" width="42" height="42" rx="21" fill="black" id="id_101"></rect>
<path d="M27.8737 29C27.4737 29 27.207 28.8667 26.9404 28.6L21.207 22.8667L15.4737 28.6C14.9404 29.1333 14.1404 29.1333 13.607 28.6C13.0737 28.0667 13.0737 27.2667 13.607 26.7333L19.3404 21L13.607 15.2667C13.0737 14.7333 13.0737 13.9333 13.607 13.4C14.1404 12.8667 14.9404 12.8667 15.4737 13.4L21.207 19.1333L26.9404 13.4C27.4737 12.8667 28.2737 12.8667 28.807 13.4C29.3404 13.9333 29.3404 14.7333 28.807 15.2667L23.0737 21L28.807 26.7333C29.3404 27.2667 29.3404 28.0667 28.807 28.6C28.5404 28.8667 28.2737 29 27.8737 29Z" fill="white" id="id_102"></path>
</svg>